<mxfile host="65bd71144e">
    <diagram id="CvSnMGq1WPMxmNIL2VvM" name="Home">
        <mxGraphModel dx="905" dy="627" grid="1" gridSize="10" guides="1" tooltips="1" connect="1" arrows="1" fold="1" page="1" pageScale="1" pageWidth="850" pageHeight="1100" math="0" shadow="0">
            <root>
                <mxCell id="0"/>
                <mxCell id="1" parent="0"/>
                <mxCell id="2" value="" style="strokeWidth=1;shadow=0;dashed=0;align=center;html=1;shape=mxgraph.mockup.containers.browserWindow;rSize=0;strokeColor=#666666;strokeColor2=#008cff;strokeColor3=#c4c4c4;mainText=,;recursiveResize=0;" parent="1" vertex="1">
                    <mxGeometry x="150" y="50" width="580" height="1350" as="geometry"/>
                </mxCell>
                <mxCell id="3" value="Page 1" style="strokeWidth=1;shadow=0;dashed=0;align=center;html=1;shape=mxgraph.mockup.containers.anchor;fontSize=17;fontColor=#666666;align=left;" parent="2" vertex="1">
                    <mxGeometry x="60" y="12" width="110" height="26" as="geometry"/>
                </mxCell>
                <mxCell id="4" value="https://www.paradice.bet" style="strokeWidth=1;shadow=0;dashed=0;align=center;html=1;shape=mxgraph.mockup.containers.anchor;rSize=0;fontSize=17;fontColor=#666666;align=left;" parent="2" vertex="1">
                    <mxGeometry x="130" y="60" width="250" height="26" as="geometry"/>
                </mxCell>
                <mxCell id="5" value="Logo" style="rounded=0;whiteSpace=wrap;html=1;" parent="2" vertex="1">
                    <mxGeometry x="30" y="130" width="70" height="30" as="geometry"/>
                </mxCell>
                <mxCell id="9" value="" style="verticalLabelPosition=bottom;verticalAlign=top;html=1;shape=mxgraph.basic.moon" parent="2" vertex="1">
                    <mxGeometry x="502" y="135" width="15" height="20" as="geometry"/>
                </mxCell>
                <mxCell id="11" value="" style="verticalLabelPosition=bottom;verticalAlign=top;html=1;shape=mxgraph.basic.sun" parent="2" vertex="1">
                    <mxGeometry x="521" y="134" width="20" height="20" as="geometry"/>
                </mxCell>
                <mxCell id="12" value="" style="group" parent="2" vertex="1" connectable="0">
                    <mxGeometry x="412" y="130" width="80" height="30" as="geometry"/>
                </mxCell>
                <mxCell id="7" value="Login&amp;nbsp; &amp;nbsp; &amp;nbsp;" style="rounded=1;whiteSpace=wrap;html=1;" parent="12" vertex="1">
                    <mxGeometry width="80" height="30" as="geometry"/>
                </mxCell>
                <mxCell id="6" value="" style="html=1;verticalLabelPosition=bottom;align=center;labelBackgroundColor=#ffffff;verticalAlign=top;strokeWidth=2;strokeColor=#FFFFFF;shadow=0;dashed=0;shape=mxgraph.ios7.icons.wallet;" parent="12" vertex="1">
                    <mxGeometry x="54" y="5" width="20" height="20" as="geometry"/>
                </mxCell>
                <mxCell id="16" value="" style="group;fillColor=#ffff88;strokeColor=#36393d;" parent="2" vertex="1" connectable="0">
                    <mxGeometry x="156" y="190" width="66.66" height="40" as="geometry"/>
                </mxCell>
                <mxCell id="14" value="" style="verticalLabelPosition=bottom;verticalAlign=top;html=1;shape=card;whiteSpace=wrap;size=20;arcSize=12;" parent="16" vertex="1">
                    <mxGeometry width="66.66" height="40" as="geometry"/>
                </mxCell>
                <mxCell id="15" value="02" style="text;html=1;strokeColor=none;fillColor=none;align=center;verticalAlign=middle;whiteSpace=wrap;rounded=0;fontSize=36;" parent="16" vertex="1">
                    <mxGeometry x="16.331999999999994" y="11" width="39.995999999999995" height="20" as="geometry"/>
                </mxCell>
                <mxCell id="20" value="" style="group;fillColor=#ffff88;strokeColor=#36393d;" parent="2" vertex="1" connectable="0">
                    <mxGeometry x="330" y="190" width="66.66" height="40" as="geometry"/>
                </mxCell>
                <mxCell id="21" value="" style="verticalLabelPosition=bottom;verticalAlign=top;html=1;shape=card;whiteSpace=wrap;size=20;arcSize=12;" parent="20" vertex="1">
                    <mxGeometry width="66.66" height="40" as="geometry"/>
                </mxCell>
                <mxCell id="22" value="04" style="text;html=1;strokeColor=none;fillColor=none;align=center;verticalAlign=middle;whiteSpace=wrap;rounded=0;fontSize=36;" parent="20" vertex="1">
                    <mxGeometry x="16.331999999999994" y="11" width="39.995999999999995" height="20" as="geometry"/>
                </mxCell>
                <mxCell id="26" value="" style="group;fillColor=#ffff88;strokeColor=#36393d;" parent="2" vertex="1" connectable="0">
                    <mxGeometry x="76" y="190" width="66.66" height="40" as="geometry"/>
                </mxCell>
                <mxCell id="27" value="" style="verticalLabelPosition=bottom;verticalAlign=top;html=1;shape=card;whiteSpace=wrap;size=20;arcSize=12;" parent="26" vertex="1">
                    <mxGeometry width="66.66" height="40" as="geometry"/>
                </mxCell>
                <mxCell id="28" value="01" style="text;html=1;strokeColor=none;fillColor=none;align=center;verticalAlign=middle;whiteSpace=wrap;rounded=0;fontSize=36;" parent="26" vertex="1">
                    <mxGeometry x="16.331999999999994" y="11" width="39.995999999999995" height="20" as="geometry"/>
                </mxCell>
                <mxCell id="75" value="50%" style="text;html=1;strokeColor=none;fillColor=none;align=center;verticalAlign=middle;whiteSpace=wrap;rounded=0;fontSize=36;" parent="2" vertex="1">
                    <mxGeometry x="215.66" y="438" width="102.34" height="30" as="geometry"/>
                </mxCell>
                <mxCell id="76" value="Symply Buy, Hold and Win" style="text;html=1;strokeColor=none;fillColor=none;align=center;verticalAlign=middle;whiteSpace=wrap;rounded=0;fontSize=30;" parent="2" vertex="1">
                    <mxGeometry x="40" y="485" width="450" height="30" as="geometry"/>
                </mxCell>
                <mxCell id="77" value="&lt;font style=&quot;font-size: 20px&quot;&gt;Buy Tickets&lt;/font&gt;" style="rounded=1;whiteSpace=wrap;html=1;fontSize=30;arcSize=17;" parent="2" vertex="1">
                    <mxGeometry x="195" y="533" width="120" height="50" as="geometry"/>
                </mxCell>
                <mxCell id="79" value="Statistics" style="text;html=1;strokeColor=none;fillColor=none;align=center;verticalAlign=middle;whiteSpace=wrap;rounded=0;fontSize=20;" parent="2" vertex="1">
                    <mxGeometry x="207.66000000000003" y="640" width="100" height="30" as="geometry"/>
                </mxCell>
                <mxCell id="84" value="&lt;br&gt;&lt;br&gt;......" style="rounded=0;whiteSpace=wrap;html=1;fontSize=20;" parent="2" vertex="1">
                    <mxGeometry x="61" y="683.5" width="399" height="108.5" as="geometry"/>
                </mxCell>
                <mxCell id="80" value="" style="rounded=0;whiteSpace=wrap;html=1;fontSize=20;" parent="2" vertex="1">
                    <mxGeometry x="61" y="683" width="399" height="47" as="geometry"/>
                </mxCell>
                <mxCell id="81" value="Hash&amp;nbsp; &amp;nbsp; &amp;nbsp;&amp;nbsp;Winner&amp;nbsp; &amp;nbsp; &amp;nbsp;&amp;nbsp;Pool Size&amp;nbsp; &amp;nbsp; &amp;nbsp;&amp;nbsp;Date&amp;nbsp; &amp;nbsp;" style="text;html=1;strokeColor=none;fillColor=none;align=center;verticalAlign=middle;whiteSpace=wrap;rounded=0;fontSize=20;" parent="2" vertex="1">
                    <mxGeometry x="70" y="690" width="380" height="30" as="geometry"/>
                </mxCell>
                <mxCell id="86" value="How to Play" style="text;html=1;strokeColor=none;fillColor=none;align=center;verticalAlign=middle;whiteSpace=wrap;rounded=0;fontSize=20;" parent="2" vertex="1">
                    <mxGeometry x="200" y="858" width="130" height="30" as="geometry"/>
                </mxCell>
                <mxCell id="87" value="&lt;font style=&quot;font-size: 15px&quot;&gt;1&lt;br&gt;&lt;/font&gt;&lt;h2 class=&quot;sc-gtsrHT sc-jJMGnK dqfzqu efRTmW&quot; style=&quot;box-sizing: border-box ; font-family: &amp;#34;kanit&amp;#34; , sans-serif ; margin: 0px 0px 16px ; padding: 0px ; border: 0px ; vertical-align: baseline ; color: white ; line-height: 1.1 ; font-size: 15px&quot;&gt;&lt;font style=&quot;font-size: 15px&quot;&gt;&amp;nbsp; &amp;nbsp; Buy Tickets&lt;/font&gt;&lt;/h2&gt;" style="shape=step;perimeter=stepPerimeter;whiteSpace=wrap;html=1;fixedSize=1;fontSize=20;" parent="2" vertex="1">
                    <mxGeometry x="30" y="900" width="135.83" height="80" as="geometry"/>
                </mxCell>
                <mxCell id="88" value="2&lt;br&gt;Wait until &lt;br&gt;ticket sold out" style="shape=step;perimeter=stepPerimeter;whiteSpace=wrap;html=1;fixedSize=1;fontSize=20;" parent="2" vertex="1">
                    <mxGeometry x="170" y="900" width="180" height="80" as="geometry"/>
                </mxCell>
                <mxCell id="89" value="3&lt;br&gt;Claim the prize" style="shape=step;perimeter=stepPerimeter;whiteSpace=wrap;html=1;fixedSize=1;fontSize=20;" parent="2" vertex="1">
                    <mxGeometry x="350" y="900" width="190" height="80" as="geometry"/>
                </mxCell>
                <mxCell id="90" value="" style="group;fillColor=#ffff88;strokeColor=#36393d;" parent="2" vertex="1" connectable="0">
                    <mxGeometry x="408.51" y="190" width="66.66" height="40" as="geometry"/>
                </mxCell>
                <mxCell id="91" value="" style="verticalLabelPosition=bottom;verticalAlign=top;html=1;shape=card;whiteSpace=wrap;size=20;arcSize=12;" parent="90" vertex="1">
                    <mxGeometry width="66.66" height="40" as="geometry"/>
                </mxCell>
                <mxCell id="92" value="05" style="text;html=1;strokeColor=none;fillColor=none;align=center;verticalAlign=middle;whiteSpace=wrap;rounded=0;fontSize=36;" parent="90" vertex="1">
                    <mxGeometry x="16.331999999999994" y="11" width="39.995999999999995" height="20" as="geometry"/>
                </mxCell>
                <mxCell id="93" value="" style="group;fillColor=#ffff88;strokeColor=#36393d;" parent="2" vertex="1" connectable="0">
                    <mxGeometry x="408.51" y="246" width="66.66" height="40" as="geometry"/>
                </mxCell>
                <mxCell id="94" value="" style="verticalLabelPosition=bottom;verticalAlign=top;html=1;shape=card;whiteSpace=wrap;size=20;arcSize=12;" parent="93" vertex="1">
                    <mxGeometry width="66.66" height="40" as="geometry"/>
                </mxCell>
                <mxCell id="95" value="10" style="text;html=1;strokeColor=none;fillColor=none;align=center;verticalAlign=middle;whiteSpace=wrap;rounded=0;fontSize=36;" parent="93" vertex="1">
                    <mxGeometry x="16.331999999999994" y="11" width="39.995999999999995" height="20" as="geometry"/>
                </mxCell>
                <mxCell id="17" value="" style="group;fillColor=#ffff88;strokeColor=#36393d;" parent="1" vertex="1" connectable="0">
                    <mxGeometry x="396" y="240" width="66.66" height="40" as="geometry"/>
                </mxCell>
                <mxCell id="18" value="" style="verticalLabelPosition=bottom;verticalAlign=top;html=1;shape=card;whiteSpace=wrap;size=20;arcSize=12;" parent="17" vertex="1">
                    <mxGeometry width="66.66" height="40" as="geometry"/>
                </mxCell>
                <mxCell id="19" value="03" style="text;html=1;strokeColor=none;fillColor=none;align=center;verticalAlign=middle;whiteSpace=wrap;rounded=0;fontSize=36;" parent="17" vertex="1">
                    <mxGeometry x="16.331999999999994" y="11" width="39.995999999999995" height="20" as="geometry"/>
                </mxCell>
                <mxCell id="29" value="" style="group;fillColor=#ffff88;strokeColor=#36393d;" parent="1" vertex="1" connectable="0">
                    <mxGeometry x="310" y="296" width="66.66" height="40" as="geometry"/>
                </mxCell>
                <mxCell id="30" value="" style="verticalLabelPosition=bottom;verticalAlign=top;html=1;shape=card;whiteSpace=wrap;size=20;arcSize=12;" parent="29" vertex="1">
                    <mxGeometry width="66.66" height="40" as="geometry"/>
                </mxCell>
                <mxCell id="31" value="07" style="text;html=1;strokeColor=none;fillColor=none;align=center;verticalAlign=middle;whiteSpace=wrap;rounded=0;fontSize=36;" parent="29" vertex="1">
                    <mxGeometry x="16.331999999999994" y="11" width="39.995999999999995" height="20" as="geometry"/>
                </mxCell>
                <mxCell id="32" value="" style="group;fillColor=#ffff88;strokeColor=#36393d;" parent="1" vertex="1" connectable="0">
                    <mxGeometry x="480" y="296" width="66.66" height="40" as="geometry"/>
                </mxCell>
                <mxCell id="33" value="" style="verticalLabelPosition=bottom;verticalAlign=top;html=1;shape=card;whiteSpace=wrap;size=20;arcSize=12;" parent="32" vertex="1">
                    <mxGeometry width="66.66" height="40" as="geometry"/>
                </mxCell>
                <mxCell id="34" value="09" style="text;html=1;strokeColor=none;fillColor=none;align=center;verticalAlign=middle;whiteSpace=wrap;rounded=0;fontSize=36;" parent="32" vertex="1">
                    <mxGeometry x="16.331999999999994" y="11" width="39.995999999999995" height="20" as="geometry"/>
                </mxCell>
                <mxCell id="35" value="" style="group;fillColor=#ffff88;strokeColor=#36393d;" parent="1" vertex="1" connectable="0">
                    <mxGeometry x="230" y="296" width="66.66" height="40" as="geometry"/>
                </mxCell>
                <mxCell id="36" value="" style="verticalLabelPosition=bottom;verticalAlign=top;html=1;shape=card;whiteSpace=wrap;size=20;arcSize=12;" parent="35" vertex="1">
                    <mxGeometry width="66.66" height="40" as="geometry"/>
                </mxCell>
                <mxCell id="37" value="06" style="text;html=1;strokeColor=none;fillColor=none;align=center;verticalAlign=middle;whiteSpace=wrap;rounded=0;fontSize=36;" parent="35" vertex="1">
                    <mxGeometry x="16.331999999999994" y="11" width="39.995999999999995" height="20" as="geometry"/>
                </mxCell>
                <mxCell id="38" value="" style="group;fillColor=#ffff88;strokeColor=#36393d;" parent="1" vertex="1" connectable="0">
                    <mxGeometry x="395" y="296" width="66.66" height="40" as="geometry"/>
                </mxCell>
                <mxCell id="39" value="" style="verticalLabelPosition=bottom;verticalAlign=top;html=1;shape=card;whiteSpace=wrap;size=20;arcSize=12;" parent="38" vertex="1">
                    <mxGeometry width="66.66" height="40" as="geometry"/>
                </mxCell>
                <mxCell id="40" value="08" style="text;html=1;strokeColor=none;fillColor=none;align=center;verticalAlign=middle;whiteSpace=wrap;rounded=0;fontSize=36;" parent="38" vertex="1">
                    <mxGeometry x="16.331999999999994" y="11" width="39.995999999999995" height="20" as="geometry"/>
                </mxCell>
                <mxCell id="45" value="" style="group;fillColor=#eeeeee;strokeColor=#36393d;" parent="1" vertex="1" connectable="0">
                    <mxGeometry x="311" y="355" width="66.66" height="40" as="geometry"/>
                </mxCell>
                <mxCell id="46" value="" style="verticalLabelPosition=bottom;verticalAlign=top;html=1;shape=card;whiteSpace=wrap;size=20;arcSize=12;" parent="45" vertex="1">
                    <mxGeometry width="66.66" height="40" as="geometry"/>
                </mxCell>
                <mxCell id="47" value="12" style="text;html=1;strokeColor=none;fillColor=none;align=center;verticalAlign=middle;whiteSpace=wrap;rounded=0;fontSize=36;" parent="45" vertex="1">
                    <mxGeometry x="16.331999999999994" y="11" width="39.995999999999995" height="20" as="geometry"/>
                </mxCell>
                <mxCell id="48" value="" style="group;fillColor=#eeeeee;strokeColor=#36393d;" parent="1" vertex="1" connectable="0">
                    <mxGeometry x="481" y="355" width="66.66" height="40" as="geometry"/>
                </mxCell>
                <mxCell id="49" value="" style="verticalLabelPosition=bottom;verticalAlign=top;html=1;shape=card;whiteSpace=wrap;size=20;arcSize=12;" parent="48" vertex="1">
                    <mxGeometry width="66.66" height="40" as="geometry"/>
                </mxCell>
                <mxCell id="50" value="14" style="text;html=1;strokeColor=none;fillColor=none;align=center;verticalAlign=middle;whiteSpace=wrap;rounded=0;fontSize=36;" parent="48" vertex="1">
                    <mxGeometry x="16.331999999999994" y="11" width="39.995999999999995" height="20" as="geometry"/>
                </mxCell>
                <mxCell id="51" value="" style="group;fillColor=#eeeeee;strokeColor=#36393d;" parent="1" vertex="1" connectable="0">
                    <mxGeometry x="231" y="355" width="66.66" height="40" as="geometry"/>
                </mxCell>
                <mxCell id="52" value="" style="verticalLabelPosition=bottom;verticalAlign=top;html=1;shape=card;whiteSpace=wrap;size=20;arcSize=12;" parent="51" vertex="1">
                    <mxGeometry width="66.66" height="40" as="geometry"/>
                </mxCell>
                <mxCell id="53" value="11" style="text;html=1;strokeColor=none;fillColor=none;align=center;verticalAlign=middle;whiteSpace=wrap;rounded=0;fontSize=36;" parent="51" vertex="1">
                    <mxGeometry x="16.331999999999994" y="11" width="39.995999999999995" height="20" as="geometry"/>
                </mxCell>
                <mxCell id="54" value="" style="group;fillColor=#eeeeee;strokeColor=#36393d;" parent="1" vertex="1" connectable="0">
                    <mxGeometry x="396" y="355" width="66.66" height="40" as="geometry"/>
                </mxCell>
                <mxCell id="55" value="" style="verticalLabelPosition=bottom;verticalAlign=top;html=1;shape=card;whiteSpace=wrap;size=20;arcSize=12;" parent="54" vertex="1">
                    <mxGeometry width="66.66" height="40" as="geometry"/>
                </mxCell>
                <mxCell id="56" value="13" style="text;html=1;strokeColor=none;fillColor=none;align=center;verticalAlign=middle;whiteSpace=wrap;rounded=0;fontSize=36;" parent="54" vertex="1">
                    <mxGeometry x="16.331999999999994" y="11" width="39.995999999999995" height="20" as="geometry"/>
                </mxCell>
                <mxCell id="57" value="" style="group;fillColor=#eeeeee;strokeColor=#36393d;" parent="1" vertex="1" connectable="0">
                    <mxGeometry x="558" y="355" width="66.66" height="40" as="geometry"/>
                </mxCell>
                <mxCell id="58" value="" style="verticalLabelPosition=bottom;verticalAlign=top;html=1;shape=card;whiteSpace=wrap;size=20;arcSize=12;" parent="57" vertex="1">
                    <mxGeometry x="3" width="66.66" height="40" as="geometry"/>
                </mxCell>
                <mxCell id="59" value="15" style="text;html=1;strokeColor=none;fillColor=none;align=center;verticalAlign=middle;whiteSpace=wrap;rounded=0;fontSize=36;" parent="57" vertex="1">
                    <mxGeometry x="16.331999999999994" y="11" width="39.995999999999995" height="20" as="geometry"/>
                </mxCell>
                <mxCell id="60" value="" style="group;fillColor=#eeeeee;strokeColor=#36393d;" parent="1" vertex="1" connectable="0">
                    <mxGeometry x="312" y="413" width="66.66" height="40" as="geometry"/>
                </mxCell>
                <mxCell id="61" value="" style="verticalLabelPosition=bottom;verticalAlign=top;html=1;shape=card;whiteSpace=wrap;size=20;arcSize=12;" parent="60" vertex="1">
                    <mxGeometry width="66.66" height="40" as="geometry"/>
                </mxCell>
                <mxCell id="62" value="17" style="text;html=1;strokeColor=none;fillColor=none;align=center;verticalAlign=middle;whiteSpace=wrap;rounded=0;fontSize=36;" parent="60" vertex="1">
                    <mxGeometry x="16.331999999999994" y="11" width="39.995999999999995" height="20" as="geometry"/>
                </mxCell>
                <mxCell id="63" value="" style="group;fillColor=#eeeeee;strokeColor=#36393d;" parent="1" vertex="1" connectable="0">
                    <mxGeometry x="482" y="413" width="66.66" height="40" as="geometry"/>
                </mxCell>
                <mxCell id="64" value="" style="verticalLabelPosition=bottom;verticalAlign=top;html=1;shape=card;whiteSpace=wrap;size=20;arcSize=12;" parent="63" vertex="1">
                    <mxGeometry width="66.66" height="40" as="geometry"/>
                </mxCell>
                <mxCell id="65" value="19" style="text;html=1;strokeColor=none;fillColor=none;align=center;verticalAlign=middle;whiteSpace=wrap;rounded=0;fontSize=36;" parent="63" vertex="1">
                    <mxGeometry x="16.331999999999994" y="11" width="39.995999999999995" height="20" as="geometry"/>
                </mxCell>
                <mxCell id="66" value="" style="group;fillColor=#eeeeee;strokeColor=#36393d;" parent="1" vertex="1" connectable="0">
                    <mxGeometry x="232" y="413" width="66.66" height="40" as="geometry"/>
                </mxCell>
                <mxCell id="67" value="" style="verticalLabelPosition=bottom;verticalAlign=top;html=1;shape=card;whiteSpace=wrap;size=20;arcSize=12;" parent="66" vertex="1">
                    <mxGeometry width="66.66" height="40" as="geometry"/>
                </mxCell>
                <mxCell id="68" value="16" style="text;html=1;strokeColor=none;fillColor=none;align=center;verticalAlign=middle;whiteSpace=wrap;rounded=0;fontSize=36;" parent="66" vertex="1">
                    <mxGeometry x="16.331999999999994" y="11" width="39.995999999999995" height="20" as="geometry"/>
                </mxCell>
                <mxCell id="69" value="" style="group;fillColor=#eeeeee;strokeColor=#36393d;" parent="1" vertex="1" connectable="0">
                    <mxGeometry x="397" y="413" width="66.66" height="40" as="geometry"/>
                </mxCell>
                <mxCell id="70" value="" style="verticalLabelPosition=bottom;verticalAlign=top;html=1;shape=card;whiteSpace=wrap;size=20;arcSize=12;" parent="69" vertex="1">
                    <mxGeometry width="66.66" height="40" as="geometry"/>
                </mxCell>
                <mxCell id="71" value="18" style="text;html=1;strokeColor=none;fillColor=none;align=center;verticalAlign=middle;whiteSpace=wrap;rounded=0;fontSize=36;" parent="69" vertex="1">
                    <mxGeometry x="16.331999999999994" y="11" width="39.995999999999995" height="20" as="geometry"/>
                </mxCell>
                <mxCell id="72" value="" style="group;fillColor=#eeeeee;strokeColor=#36393d;" parent="1" vertex="1" connectable="0">
                    <mxGeometry x="559" y="413" width="66.66" height="40" as="geometry"/>
                </mxCell>
                <mxCell id="73" value="" style="verticalLabelPosition=bottom;verticalAlign=top;html=1;shape=card;whiteSpace=wrap;size=20;arcSize=12;" parent="72" vertex="1">
                    <mxGeometry x="3" width="66.66" height="40" as="geometry"/>
                </mxCell>
                <mxCell id="74" value="20" style="text;html=1;strokeColor=none;fillColor=none;align=center;verticalAlign=middle;whiteSpace=wrap;rounded=0;fontSize=36;" parent="72" vertex="1">
                    <mxGeometry x="16.331999999999994" y="11" width="39.995999999999995" height="20" as="geometry"/>
                </mxCell>
            </root>
        </mxGraphModel>
    </diagram>
</mxfile>
